<svg width="104" height="104" xmlns="http://www.w3.org/2000/svg" fill="none">

 <g>
  <title>background</title>
  <rect fill="none" id="canvas_background" height="811" width="1662" y="-1" x="-1"/>
 </g>
 <g>
  <title>Layer 1</title>
  <path id="svg_1" d="m52.0001,38.0002l-31,9.5l33,8l30.5,-6.5l-32.5,-11z" fill="#77adff"/>
  <path id="svg_2" fill-rule="evenodd" clip-rule="evenodd" d="m51.8536,37.5222c0.1002,-0.0307 0.2075,-0.0292 0.3068,0.0044l32.5,11c0.2133,0.0722 0.352,0.278 0.3389,0.5027c-0.0131,0.2248 -0.1748,0.413 -0.395,0.46l-30.5,6.5c-0.0733,0.0156 -0.1491,0.0145 -0.222,-0.0031l-33,-8c-0.2189,-0.0531 -0.3753,-0.246 -0.382,-0.4711c-0.0067,-0.2251 0.138,-0.4269 0.3533,-0.4929l31,-9.5zm-28.9634,9.9218l31.1171,7.5435l28.609,-6.097l-30.6238,-10.365l-29.1023,8.9185z" fill="#467bc4"/>
  <path id="svg_3" fill-rule="evenodd" clip-rule="evenodd" d="m47.0742,23.1502c1.9039,-3.487 6.2748,-7.3397 10.2875,-7.6491c0.2285,-0.0176 0.3728,0.2271 0.2607,0.4271c-2.4462,4.3646 -2.4671,4.4268 -3.1195,6.4222c2.6961,-1.3745 8.0882,-2.7487 8.0882,-1.3745c0,0.6259 -1.2583,1.5657 -2.6925,2.4686c9.0518,2.9689 15.6016,11.6232 15.6016,21.837c0,12.6667 -10.0736,22.935 -22.5,22.935c-12.4265,0 -22.5,-10.2683 -22.5,-22.935c0,-10.5761 7.0227,-19.4802 16.574,-22.1313z" fill="#1890ff"/>
  <path id="svg_4" fill-rule="evenodd" clip-rule="evenodd" d="m57.3232,15.0026c0.6629,-0.0511 1.0247,0.6538 0.7354,1.1701c-1.2268,2.1889 -1.8342,3.2794 -2.2186,4.073c-0.2101,0.4339 -0.3526,0.7769 -0.4943,1.1688c1.2669,-0.5273 2.7904,-1.0025 4.1124,-1.272c0.8568,-0.1747 1.6695,-0.2718 2.2875,-0.2233c0.3041,0.0238 0.6153,0.0864 0.865,0.2357c0.2789,0.1666 0.4805,0.4461 0.4805,0.821c0,0.3151 -0.1527,0.5975 -0.3167,0.8197c-0.1714,0.2323 -0.4043,0.4643 -0.6651,0.6893c-0.312,0.2692 -0.6867,0.5475 -1.0916,0.8248c8.7533,3.3173 14.9825,11.9063 14.9825,21.9718c0,12.9337 -10.2885,23.435 -23,23.435c-12.7116,0 -23,-10.5013 -23,-23.435c0,-10.7262 7.0738,-19.7761 16.7383,-22.556c0.9949,-1.7518 2.5639,-3.5598 4.38,-4.9848c1.8753,-1.4714 4.0636,-2.573 6.2047,-2.7381zm-0.3394,1.0425c-1.7497,0.2457 -3.5907,1.1819 -5.248,2.4823c-1.7845,1.4002 -3.3065,3.1844 -4.2227,4.8624c-0.0648,0.1187 -0.1749,0.206 -0.3051,0.2422c-9.335,2.591 -16.2078,11.2981 -16.2078,21.6495c0,12.3996 9.8587,22.435 22,22.435c12.1412,0 22,-10.0354 22,-22.435c0,-9.9965 -6.41,-18.46 -15.2574,-21.3619c-0.1841,-0.0604 -0.3167,-0.2217 -0.3404,-0.414c-0.0237,-0.1923 0.0659,-0.381 0.2299,-0.4842c0.7115,-0.448 1.359,-0.8927 1.8238,-1.2937c0.233,-0.201 0.4044,-0.3777 0.5137,-0.5259c0.0725,-0.0983 0.1018,-0.1625 0.1135,-0.1965c-0.0624,-0.0321 -0.1914,-0.0716 -0.4159,-0.0892c-0.4774,-0.0374 -1.1811,0.0373 -2.0095,0.2062c-1.6467,0.3358 -3.6251,1.0094 -4.9279,1.6735c-0.1804,0.092 -0.3983,0.0661 -0.5521,-0.0655c-0.1539,-0.1316 -0.2132,-0.3429 -0.1502,-0.5353l0.0024,-0.0076c0.3248,-0.9933 0.5022,-1.5358 0.9099,-2.3776c0.3779,-0.7804 0.9563,-1.8236 2.0438,-3.7647z" fill="#1561d3"/>
  <path id="svg_5" d="m49.9291,40.9941c0,3.6672 -2.8585,6.64 -6.3846,6.64c-3.5262,0 -6.3847,-2.9728 -6.3847,-6.64c0,-3.6672 2.8585,-6.64 6.3847,-6.64c3.5261,0 6.3846,2.9728 6.3846,6.64z" fill="white"/>
  <path id="svg_6" d="m68.2695,40.9941c0,3.6672 -2.8585,6.64 -6.3847,6.64c-3.5261,0 -6.3846,-2.9728 -6.3846,-6.64c0,-3.6672 2.8585,-6.64 6.3846,-6.64c3.5262,0 6.3847,2.9728 6.3847,6.64z" fill="white"/>
  <path id="svg_7" d="m48.1413,40.9915c0,2.6798 -2.0582,4.8523 -4.597,4.8523c-2.5388,0 -4.5969,-2.1725 -4.5969,-4.8523c0,-2.6799 2.0581,-4.8524 4.5969,-4.8524c2.5388,0 4.597,2.1725 4.597,4.8524z" fill="black"/>
  <path id="svg_8" d="m66.4816,40.9915c0,2.6798 -2.0581,4.8523 -4.597,4.8523c-2.5388,0 -4.5969,-2.1725 -4.5969,-4.8523c0,-2.6799 2.0581,-4.8524 4.5969,-4.8524c2.5389,0 4.597,2.1725 4.597,4.8524z" fill="black"/>
  <path id="svg_9" d="m43.0335,39.4545c0,1.1283 -0.9147,2.0431 -2.0431,2.0431c-1.1283,0 -2.043,-0.9148 -2.043,-2.0431c0,-1.1284 0.9147,-2.0431 2.043,-2.0431c1.1284,0 2.0431,0.9147 2.0431,2.0431z" fill="white"/>
  <path id="svg_10" d="m61.3739,39.4545c0,1.1283 -0.9148,2.0431 -2.0431,2.0431c-1.1284,0 -2.0431,-0.9148 -2.0431,-2.0431c0,-1.1284 0.9147,-2.0431 2.0431,-2.0431c1.1283,0 2.0431,0.9147 2.0431,2.0431z" fill="white"/>
  <path id="svg_11" d="m47.1198,43.0288c0,0.5642 -0.4573,1.0215 -1.0215,1.0215c-0.5642,0 -1.0215,-0.4573 -1.0215,-1.0215c0,-0.5642 0.4573,-1.0216 1.0215,-1.0216c0.5642,0 1.0215,0.4574 1.0215,1.0216z" fill="white"/>
  <path id="svg_12" d="m65.4602,43.0288c0,0.5642 -0.4574,1.0215 -1.0216,1.0215c-0.5642,0 -1.0215,-0.4573 -1.0215,-1.0215c0,-0.5642 0.4573,-1.0216 1.0215,-1.0216c0.5642,0 1.0216,0.4574 1.0216,1.0216z" fill="white"/>
  <path id="svg_13" d="m44.9501,31.6726c0,1.0216 -1.0215,1.1493 -2.4261,1.2768c-1.4047,0.1276 -2.6816,-0.3829 -2.6816,-0.7661c0,-0.3833 1.0216,-1.1492 2.4262,-1.4045c1.4046,-0.2554 2.6815,-0.1279 2.6815,0.8938z" fill="#1561d3"/>
  <path id="svg_14" d="m61.1681,31.5246c0,1.0217 1.0216,1.1493 2.4262,1.2769c1.4046,0.1275 2.6816,-0.383 2.6815,-0.7662c0,-0.3832 -1.0215,-1.1491 -2.4261,-1.4045c-1.4047,-0.2553 -2.6816,-0.1278 -2.6816,0.8938z" fill="#1561d3"/>
  <path id="svg_15" d="m56.6875,50.3116c-1.0336,0.6681 -1.485,-1.694 -3.6689,-1.694c-2.1839,0 -2.8314,2.5907 -3.7563,1.694c-0.9249,-0.8968 0.6613,-3.8114 3.7563,-3.8114c3.095,0 4.7026,3.1432 3.6689,3.8114z" fill="#FEE46B"/>
  <path id="svg_16" fill-rule="evenodd" clip-rule="evenodd" d="m49.5169,49.4205c-0.0513,0.3056 0.0226,0.4634 0.0934,0.5321c0.0263,0.0255 0.0446,0.0386 0.0552,0.045c0.0077,-0.0027 0.0196,-0.0075 0.0364,-0.0162c0.0575,-0.0298 0.1362,-0.0867 0.2473,-0.1854c0.0914,-0.0813 0.1866,-0.1742 0.2981,-0.2829c0.0233,-0.0229 0.0474,-0.0464 0.0723,-0.0706c0.55,-0.5351 1.3876,-1.3249 2.699,-1.3249c1.304,0 2.0883,0.7212 2.6165,1.2412c0.0312,0.0307 0.0608,0.06 0.0892,0.0879c0.2331,0.2303 0.3761,0.3715 0.5101,0.4486c0.06,0.0344 0.0861,0.0353 0.091,0.0353l0.0002,0c0.0024,0.0001 0.0289,0.0008 0.0905,-0.039c0.0263,-0.017 0.1147,-0.0955 0.0741,-0.389c-0.0391,-0.2832 -0.1952,-0.6602 -0.4872,-1.045c-0.5793,-0.7635 -1.6155,-1.4574 -2.9844,-1.4574c-1.3824,0 -2.413,0.6488 -2.9941,1.3804c-0.2929,0.3687 -0.4574,0.7406 -0.5076,1.0399zm0.1374,0.58c0,0 0.0006,-0.0001 0.0017,-0.0002l-0.0017,0.0002zm0.02,0.0018c0.0015,0.0004 0.0023,0.0007 0.0023,0.0008c0,0 -0.0008,-0.0002 -0.0023,-0.0008zm-0.4329,-2.2437c0.7546,-0.9498 2.0645,-1.7584 3.7772,-1.7584c1.7261,0 3.0412,0.8778 3.781,1.8529c0.3676,0.4845 0.613,1.0186 0.6812,1.5126c0.0669,0.4838 -0.0314,1.0487 -0.5219,1.3658c-0.1953,0.1262 -0.4092,0.2004 -0.6391,0.1991c-0.2261,-0.0013 -0.4219,-0.0754 -0.5837,-0.1684c-0.2564,-0.1473 -0.5038,-0.3936 -0.714,-0.603c-0.0303,-0.0301 -0.0598,-0.0595 -0.0885,-0.0877c-0.5018,-0.494 -1.0351,-0.9539 -1.915,-0.9539c-0.8725,0 -1.4506,0.5056 -2.0016,1.0416c-0.0218,0.0212 -0.0438,0.0427 -0.0659,0.0643c-0.1116,0.1089 -0.227,0.2216 -0.3375,0.3198c-0.1319,0.1173 -0.2835,0.2387 -0.4509,0.3256c-0.1723,0.0895 -0.3872,0.1557 -0.6302,0.1228c-0.2441,-0.0331 -0.449,-0.157 -0.6183,-0.3212c-0.3916,-0.3796 -0.4663,-0.9225 -0.3835,-1.4155c0.0837,-0.4994 0.3358,-1.0243 0.7107,-1.4964z" fill="#1561d3"/>
  <path id="svg_17" fill-rule="evenodd" clip-rule="evenodd" d="m37.2453,48.0473c-0.4587,0.2592 -0.6063,0.5397 -0.6063,0.7385c0,0.1987 0.1476,0.4793 0.6063,0.7385c0.4434,0.2507 1.0897,0.4215 1.8307,0.4215c0.741,0 1.3872,-0.1708 1.8307,-0.4215c0.4586,-0.2592 0.6062,-0.5398 0.6062,-0.7385c0,-0.1988 -0.1476,-0.4793 -0.6062,-0.7385c-0.4435,-0.2507 -1.0897,-0.4215 -1.8307,-0.4215c-0.741,0 -1.3873,0.1708 -1.8307,0.4215zm-0.4921,-0.8706c0.6195,-0.3502 1.4418,-0.5509 2.3228,-0.5509c0.881,0 1.7032,0.2007 2.3227,0.5509c0.6043,0.3415 1.1142,0.891 1.1142,1.6091c0,0.718 -0.5099,1.2675 -1.1142,1.6091c-0.6195,0.3501 -1.4417,0.5509 -2.3227,0.5509c-0.881,0 -1.7033,-0.2008 -2.3228,-0.5509c-0.6043,-0.3416 -1.1142,-0.8911 -1.1142,-1.6091c0,-0.7181 0.5099,-1.2676 1.1142,-1.6091z" fill="#77adff"/>
  <path id="svg_18" fill-rule="evenodd" clip-rule="evenodd" d="m65.5921,48.0473c-0.4587,0.2592 -0.6062,0.5397 -0.6062,0.7385c0,0.1987 0.1475,0.4793 0.6062,0.7385c0.4435,0.2507 1.0897,0.4215 1.8307,0.4215c0.741,0 1.3872,-0.1708 1.8307,-0.4215c0.4587,-0.2592 0.6063,-0.5398 0.6063,-0.7385c0,-0.1988 -0.1476,-0.4793 -0.6063,-0.7385c-0.4435,-0.2507 -1.0897,-0.4215 -1.8307,-0.4215c-0.741,0 -1.3872,0.1708 -1.8307,0.4215zm-0.492,-0.8706c0.6195,-0.3502 1.4417,-0.5509 2.3227,-0.5509c0.881,0 1.7033,0.2007 2.3228,0.5509c0.6043,0.3415 1.1142,0.891 1.1142,1.6091c0,0.718 -0.5099,1.2675 -1.1142,1.6091c-0.6195,0.3501 -1.4418,0.5509 -2.3228,0.5509c-0.881,0 -1.7032,-0.2008 -2.3227,-0.5509c-0.6044,-0.3416 -1.1142,-0.8911 -1.1142,-1.6091c0,-0.7181 0.5098,-1.2676 1.1142,-1.6091z" fill="#77adff"/>
  <path id="svg_19" d="m31.5002,43.5003c-1.5858,-0.4531 -3,1 -3.5,1.9999c-0.5,1 -0.5,4 0.5,6.5c1.1295,2.8239 3,4.5001 4,4.5001c1,0 3,-2 2.5,-3c-0.5,-1 0.5,-2.5 1,-3.5001c0.5,-1 -1,-5.5 -4.5,-6.4999z" fill="#1890ff"/>
  <path id="svg_20" fill-rule="evenodd" clip-rule="evenodd" d="m29.6305,44.3644c-0.541,0.3802 -0.967,0.9273 -1.1831,1.3594c-0.0874,0.1749 -0.1722,0.4839 -0.2241,0.9213c-0.0508,0.428 -0.0663,0.9459 -0.0363,1.5164c0.0601,1.143 0.3012,2.4626 0.7774,3.653c0.5431,1.3577 1.26,2.4277 1.9468,3.1502c0.3437,0.3616 0.6723,0.6283 0.9592,0.8014c0.2953,0.1781 0.508,0.2341 0.6298,0.2341c0.1074,0 0.3216,-0.0643 0.615,-0.2503c0.278,-0.1763 0.5718,-0.4269 0.8258,-0.7091c0.256,-0.2845 0.4522,-0.5795 0.5566,-0.8375c0.1087,-0.2686 0.0877,-0.4148 0.0554,-0.4794c-0.3538,-0.7076 -0.149,-1.5169 0.1079,-2.1593c0.1814,-0.4534 0.4364,-0.9291 0.6498,-1.3271c0.0914,-0.1705 0.1752,-0.3267 0.2423,-0.4609c0.0125,-0.0251 0.0409,-0.1155 0.0409,-0.3017c0,-0.1765 -0.0253,-0.4018 -0.0824,-0.6659c-0.1141,-0.5276 -0.3462,-1.1703 -0.7003,-1.8193c-0.7127,-1.3067 -1.8726,-2.5585 -3.4484,-3.0087c-0.6012,-0.1718 -1.1956,0.0063 -1.7323,0.3834zm-0.575,-0.8182c0.6919,-0.4861 1.5974,-0.808 2.582,-0.5267c1.9243,0.5498 3.2643,2.048 4.0516,3.4913c0.396,0.726 0.6639,1.4583 0.7998,2.0869c0.0679,0.3141 0.105,0.6122 0.105,0.8772c0,0.2551 -0.0341,0.5241 -0.1465,0.7489c-0.0921,0.1842 -0.1913,0.3689 -0.2916,0.5555c-0.2007,0.3735 -0.4057,0.7549 -0.5664,1.1566c-0.243,0.6076 -0.2882,1.0483 -0.142,1.3407c0.2177,0.4354 0.1341,0.9142 -0.0228,1.3019c-0.1612,0.3982 -0.4338,0.7907 -0.7403,1.1312c-0.3084,0.3428 -0.6709,0.6547 -1.0335,0.8847c-0.3473,0.2202 -0.7581,0.4058 -1.1506,0.4058c-0.3783,0 -0.7744,-0.1535 -1.1463,-0.3778c-0.3804,-0.2295 -0.7775,-0.5583 -1.1676,-0.9687c-0.7808,-0.8215 -1.5639,-2.0016 -2.1504,-3.4678c-0.5238,-1.3095 -0.7827,-2.7399 -0.8475,-3.9719c-0.0325,-0.6171 -0.0168,-1.1929 0.0418,-1.6867c0.0575,-0.4845 0.1602,-0.9255 0.3228,-1.2507c0.2839,-0.5678 0.815,-1.2472 1.5025,-1.7304z" fill="#1561d3"/>
  <path id="svg_21" d="m74.0939,43.5003c1.5858,-0.4531 3,1 3.5,1.9999c0.5,1 0.5,4 -0.5,6.5c-1.1295,2.8239 -3,4.5001 -4,4.5001c-1,0 -3,-2 -2.5,-3c0.5,-1 -0.5,-2.5 -1,-3.5001c-0.5,-1 1,-5.5 4.5,-6.4999z" fill="#1890ff"/>
  <path id="svg_22" fill-rule="evenodd" clip-rule="evenodd" d="m75.9636,44.3644c0.541,0.3802 0.967,0.9273 1.1831,1.3594c0.0874,0.1749 0.1722,0.4839 0.2241,0.9213c0.0508,0.428 0.0663,0.9459 0.0363,1.5164c-0.0602,1.143 -0.3012,2.4626 -0.7774,3.653c-0.5431,1.3577 -1.26,2.4277 -1.9468,3.1502c-0.3437,0.3616 -0.6723,0.6283 -0.9592,0.8014c-0.2953,0.1781 -0.508,0.2341 -0.6298,0.2341c-0.1074,0 -0.3217,-0.0643 -0.615,-0.2503c-0.278,-0.1763 -0.5718,-0.4269 -0.8258,-0.7091c-0.256,-0.2845 -0.4522,-0.5795 -0.5567,-0.8375c-0.1086,-0.2686 -0.0876,-0.4148 -0.0553,-0.4794c0.3538,-0.7076 0.149,-1.5169 -0.1079,-2.1593c-0.1814,-0.4534 -0.4364,-0.9291 -0.6498,-1.3271c-0.0914,-0.1705 -0.1752,-0.3267 -0.2423,-0.4609c-0.0126,-0.0251 -0.0409,-0.1155 -0.0409,-0.3017c0,-0.1765 0.0253,-0.4018 0.0824,-0.6659c0.1141,-0.5276 0.3462,-1.1703 0.7003,-1.8193c0.7127,-1.3067 1.8726,-2.5585 3.4484,-3.0087c0.6012,-0.1718 1.1956,0.0063 1.7323,0.3834zm0.5749,-0.8182c-0.6918,-0.4861 -1.5974,-0.808 -2.582,-0.5267c-1.9242,0.5498 -3.2643,2.048 -4.0515,3.4913c-0.396,0.726 -0.6639,1.4583 -0.7998,2.0869c-0.0679,0.3141 -0.105,0.6122 -0.105,0.8772c0,0.2551 0.0341,0.5241 0.1465,0.7489c0.0921,0.1842 0.1913,0.3689 0.2916,0.5555c0.2007,0.3735 0.4057,0.7549 0.5664,1.1566c0.243,0.6076 0.2882,1.0483 0.142,1.3407c-0.2177,0.4354 -0.1341,0.9142 0.0228,1.3019c0.1612,0.3982 0.4337,0.7907 0.7403,1.1312c0.3084,0.3428 0.6708,0.6547 1.0335,0.8847c0.3473,0.2202 0.7581,0.4058 1.1506,0.4058c0.3783,0 0.7744,-0.1535 1.1463,-0.3778c0.3804,-0.2295 0.7775,-0.5583 1.1675,-0.9687c0.7809,-0.8215 1.564,-2.0016 2.1505,-3.4678c0.5238,-1.3095 0.7827,-2.7399 0.8475,-3.9719c0.0325,-0.6171 0.0167,-1.1929 -0.0418,-1.6867c-0.0575,-0.4845 -0.1602,-0.9255 -0.3228,-1.2507c-0.2839,-0.5678 -0.815,-1.2472 -1.5026,-1.7304z" fill="#1561d3"/>
  <path id="svg_23" d="m54.0001,88.0002l0,-33l30.5,-6l0,28.9812c0,0.8978 -0.5983,1.6856 -1.4631,1.9266l-29.0369,8.0922z" fill="#77adff"/>
  <path stroke="#000000" stroke-opacity="0" id="svg_24" fill-rule="evenodd" clip-rule="evenodd" d="m84.8177,48.6141c0.1155,0.095 0.1824,0.2366 0.1824,0.3861l0,28.9812c0,1.1222 -0.7478,2.107 -1.8289,2.4082l-29.0369,8.0923c-0.1506,0.042 -0.3121,0.0111 -0.4366,-0.0835c-0.1245,-0.0945 -0.1976,-0.2418 -0.1976,-0.3982l0,-33c0,-0.2389 0.169,-0.4444 0.4035,-0.4905l30.5,-6c0.1467,-0.0289 0.2986,0.0094 0.4141,0.1044zm-30.3176,6.7974l0,31.9303l28.4027,-7.9155c0.6486,-0.1807 1.0973,-0.7715 1.0973,-1.4449l0,-28.3732l-29.5,5.8033z" fill="#467bc4"/>
  <path id="svg_25" d="m54.0001,88.0002l0,-33l-33,-7.5l1.4317,30.0664c0.0408,0.8569 0.6235,1.5923 1.4483,1.8279l30.12,8.6057z" fill="#77adff"/>
  <path id="svg_26" fill-rule="evenodd" clip-rule="evenodd" d="m20.679,47.117c0.1197,-0.1004 0.2795,-0.1389 0.4319,-0.1043l33,7.5c0.2276,0.0517 0.3892,0.2541 0.3892,0.4875l0,33c0,0.1569 -0.0737,0.3047 -0.1989,0.3992c-0.1253,0.0945 -0.2876,0.1247 -0.4385,0.0816l-30.1199,-8.6057c-1.0311,-0.2946 -1.7594,-1.2138 -1.8104,-2.2849l-1.4317,-30.0664c-0.0075,-0.156 0.0585,-0.3066 0.1783,-0.407zm0.8518,1.0166l1.4005,29.4092c0.0306,0.6427 0.4676,1.1942 1.0862,1.371l29.4826,8.4236l0,-31.938l-31.9693,-7.2658z" fill="#467bc4"/>
  <path id="svg_27" d="m14.0384,55.3321l6.9617,-7.8319l33,7.5l-7.1697,10.3065c-0.495,0.7116 -1.3922,1.0233 -2.2218,0.7719l-30.1128,-9.1251c-0.6984,-0.2116 -0.9422,-1.0759 -0.4574,-1.6214z" fill="#77adff"/>
  <path id="svg_28" fill-rule="evenodd" clip-rule="evenodd" d="m20.6264,47.1681c0.1211,-0.1363 0.3068,-0.1958 0.4845,-0.1554l33,7.5c0.1621,0.0368 0.2953,0.1518 0.3554,0.3069c0.0601,0.155 0.0392,0.3297 -0.0557,0.4662l-7.1697,10.3064c-0.6188,0.8895 -1.7403,1.2792 -2.7773,0.9649l-30.1128,-9.1251c-1.0476,-0.3174 -1.4133,-1.6139 -0.6861,-2.4321l6.9617,-7.8318zm0.5511,0.8852l-6.7654,7.611c-0.2424,0.2727 -0.1205,0.7049 0.2288,0.8107l30.1127,9.1251c0.6222,0.1885 1.2951,-0.0452 1.6664,-0.579l6.7462,-9.6976l-31.9887,-7.2702z" fill="#467bc4"/>
  <path id="svg_29" d="m54.0001,55.0002l5.7239,11.0075c0.4486,0.8627 1.4527,1.2777 2.3795,0.9835l28.4342,-9.0267c0.6886,-0.2186 0.9253,-1.073 0.4473,-1.6147l-6.4849,-7.3496l-30.5,6z" fill="#77adff"/>
  <path id="svg_30" fill-rule="evenodd" clip-rule="evenodd" d="m84.4036,48.5097c0.1744,-0.0343 0.3538,0.0265 0.4714,0.1597l6.4849,7.3496c0.717,0.8126 0.3621,2.0941 -0.6709,2.4221l-28.4342,9.0267c-1.1585,0.3678 -2.4137,-0.151 -2.9745,-1.2294l-5.7238,-11.0075c-0.0727,-0.1397 -0.0753,-0.3055 -0.007,-0.4475c0.0683,-0.1419 0.1995,-0.2433 0.3541,-0.2737l30.5,-6zm-29.6519,6.8523l5.4159,10.415c0.3364,0.6471 1.0895,0.9583 1.7847,0.7377l28.4341,-9.0268c0.3443,-0.1093 0.4626,-0.5364 0.2236,-0.8073l-6.295,-7.1344l-29.5633,5.8158z" fill="#467bc4"/>
  <path id="svg_31" fill-rule="evenodd" clip-rule="evenodd" d="m11.0049,40.2709c-0.9382,-1.2189 -2.50644,-1.6718 -3.72744,-0.8578c-0.67504,0.4501 -1.05725,0.9593 -1.24287,1.4584c-0.18614,0.5004 -0.18697,1.0238 -0.04476,1.5218c0.29003,1.0157 1.15981,1.8758 2.13155,2.1187c0.71857,0.1797 1.74079,0.1857 3.01142,-0.061c0.9573,-1.6101 0.6613,-3.1547 -0.1279,-4.1801zm1.3898,3.8723c0.6599,-1.6829 0.2988,-3.3179 -0.5974,-4.4822c-1.1625,-1.5104 -3.29554,-2.2659 -5.07454,-1.0799c-0.82496,0.55 -1.35644,1.2185 -1.62544,1.9418c-0.26847,0.7218 -0.26317,1.4652 -0.06906,2.145c0.38259,1.3399 1.5128,2.4798 2.85058,2.8143c0.65554,0.1639 1.4601,0.2042 2.38276,0.1096c-2.37717,2.7147 -5.09064,4.5109 -5.9851,4.9581c-0.24699,0.1235 -0.3471,0.4238 -0.2236,0.6708c0.12349,0.247 0.42382,0.3471 0.67081,0.2236c1.06075,-0.5303 4.11567,-2.5733 6.66049,-5.6271c0.131,-0.1571 0.2514,-0.3151 0.3618,-0.4735c0.4674,-0.1057 0.9556,-0.2402 1.462,-0.4045c2.2059,-0.7157 4.8,-2.0114 7.5862,-4.0377c0.2233,-0.1624 0.2727,-0.4752 0.1103,-0.6985c-0.1624,-0.2233 -0.4752,-0.2727 -0.6985,-0.1103c-2.7138,1.9737 -5.2149,3.2167 -7.3066,3.8953c-0.1713,0.0556 -0.3396,0.1073 -0.5047,0.1552z" fill="#1561d3"/>
  <path id="svg_32" fill-rule="evenodd" clip-rule="evenodd" d="m90.0049,32.2709c-0.9382,-1.2189 -2.5064,-1.6718 -3.7274,-0.8578c-0.6751,0.4501 -1.0573,0.9593 -1.2429,1.4584c-0.1861,0.5004 -0.187,1.0238 -0.0448,1.5218c0.2901,1.0157 1.1598,1.8758 2.1316,2.1187c0.7185,0.1797 1.7408,0.1857 3.0114,-0.061c0.9573,-1.6101 0.6613,-3.1547 -0.1279,-4.1801zm1.3898,3.8723c0.6599,-1.6829 0.2988,-3.3179 -0.5974,-4.4822c-1.1625,-1.5104 -3.2955,-2.2659 -5.0745,-1.0799c-0.825,0.55 -1.3565,1.2185 -1.6255,1.9418c-0.2684,0.7218 -0.2631,1.4652 -0.069,2.145c0.3825,1.3399 1.5128,2.4798 2.8505,2.8143c0.6556,0.1639 1.4601,0.2042 2.3828,0.1096c-2.3772,2.7147 -5.0906,4.5109 -5.9851,4.9581c-0.247,0.1235 -0.3471,0.4238 -0.2236,0.6708c0.1235,0.247 0.4238,0.3471 0.6708,0.2236c1.0608,-0.5303 4.1157,-2.5733 6.6605,-5.6271c0.131,-0.1571 0.2514,-0.3151 0.3618,-0.4735c0.4674,-0.1057 0.9556,-0.2402 1.462,-0.4045c2.2059,-0.7157 4.8,-2.0114 7.5862,-4.0377c0.2238,-0.1624 0.2728,-0.4752 0.1103,-0.6985c-0.1624,-0.2233 -0.4752,-0.2727 -0.6985,-0.1103c-2.7138,1.9737 -5.2149,3.2167 -7.3066,3.8953c-0.1713,0.0556 -0.3396,0.1073 -0.5047,0.1552z" fill="#1561d3"/>
  <path id="svg_33" fill-rule="evenodd" clip-rule="evenodd" d="m34.5001,17.0002c-1.3807,0 -2.5,1.1193 -2.5,2.5c0,1.3808 1.1193,2.5 2.5,2.5c1.3807,0 2.5,-1.1192 2.5,-2.5c0,-1.3807 -1.1193,-2.5 -2.5,-2.5zm-3.5,2.5c0,-1.933 1.567,-3.5 3.5,-3.5c1.933,0 3.5,1.567 3.5,3.5c0,1.933 -1.567,3.5 -3.5,3.5c-1.933,0 -3.5,-1.567 -3.5,-3.5z" fill="#1561d3"/>
  <path id="svg_34" fill-rule="evenodd" clip-rule="evenodd" d="m93.5001,61.0002c-0.8284,0 -1.5,0.6716 -1.5,1.5c0,0.8285 0.6716,1.5 1.5,1.5c0.8284,0 1.5,-0.6715 1.5,-1.5c0,-0.8284 -0.6716,-1.5 -1.5,-1.5zm-2.5,1.5c0,-1.3807 1.1193,-2.5 2.5,-2.5c1.3807,0 2.5,1.1193 2.5,2.5c0,1.3808 -1.1193,2.5 -2.5,2.5c-1.3807,0 -2.5,-1.1192 -2.5,-2.5z" fill="#1561d3"/>
  <path id="svg_35" fill-rule="evenodd" clip-rule="evenodd" d="m25.0001,33.5002c0,-0.2761 0.2239,-0.5 0.5,-0.5l4,0c0.2762,0 0.5,0.2239 0.5,0.5c0,0.2762 -0.2238,0.5 -0.5,0.5l-4,0c-0.2761,0 -0.5,-0.2238 -0.5,-0.5z" fill="#1561d3"/>
  <path id="svg_36" fill-rule="evenodd" clip-rule="evenodd" d="m71.0001,23.5002c0,-0.2761 0.2239,-0.5 0.5,-0.5l8,0c0.2762,0 0.5,0.2239 0.5,0.5c0,0.2762 -0.2238,0.5 -0.5,0.5l-8,0c-0.2761,0 -0.5,-0.2238 -0.5,-0.5z" fill="#1561d3"/>
  <path id="svg_37" fill-rule="evenodd" clip-rule="evenodd" d="m27.5001,30.677619c0.2762,0 0.5,0.2239 0.5,0.5l0,4c0,0.2762 -0.2238,0.5 -0.5,0.5c-0.2761,0 -0.5,-0.2238 -0.5,-0.5l0,-4c0,-0.2761 0.2239,-0.5 0.5,-0.5z" fill="#1561d3"/>
  <path id="svg_38" fill-rule="evenodd" clip-rule="evenodd" d="m75.5001,19.0002c0.2762,0 0.5,0.2239 0.5,0.5l0,8c0,0.2762 -0.2238,0.5 -0.5,0.5c-0.2761,0 -0.5,-0.2238 -0.5,-0.5l0,-8c0,-0.2761 0.2239,-0.5 0.5,-0.5z" fill="#1561d3"/>
 </g>
</svg>